<?xml version="1.0" standalone="no"?>
<!DOCTYPE svg PUBLIC "-//W3C//DTD SVG 20010904//EN"
 "http://www.w3.org/TR/2001/REC-SVG-20010904/DTD/svg10.dtd">
<svg version="1.0" xmlns="http://www.w3.org/2000/svg"
 width="512.000000pt" height="512.000000pt" viewBox="0 0 512.000000 512.000000"
 preserveAspectRatio="xMidYMid meet">
<metadata>
Created by potrace 1.11, written by Peter Selinger 2001-2013
</metadata>
<g transform="translate(0.000000,512.000000) scale(0.100000,-0.100000)"
fill="#000000" stroke="none">
<path d="M2580 4348 c-1 -345 -104 -689 -293 -976 -106 -161 -144 -201 -191
-202 -13 0 -166 146 -421 400 -221 220 -407 400 -413 400 -14 0 -112 -98 -112
-112 0 -6 177 -189 394 -407 217 -218 397 -406 400 -418 14 -46 -26 -87 -189
-195 -182 -121 -413 -216 -639 -264 -92 -19 -163 -27 -299 -31 l-178 -6 3 -81
3 -81 115 -3 c413 -11 857 140 1215 413 140 106 136 106 287 -42 129 -127 153
-161 143 -200 -4 -16 -252 -269 -636 -651 l-630 -625 48 -50 c26 -27 89 -83
138 -125 539 -455 1287 -577 1942 -317 497 198 880 581 1078 1078 281 709 117
1505 -424 2060 l-66 67 -632 -632 c-568 -568 -635 -631 -663 -631 -27 0 -50
18 -166 134 -162 162 -163 164 -80 267 280 349 445 822 434 1242 l-3 115 -82
3 -83 3 0 -133z m1434 -600 c105 -162 191 -361 240 -553 31 -125 56 -292 56
-379 l0 -66 -44 0 c-79 0 -270 -29 -387 -59 -270 -68 -509 -184 -734 -356
-140 -106 -136 -106 -287 43 -130 127 -153 160 -144 201 4 17 213 231 624 638
339 337 618 612 620 613 1 0 27 -37 56 -82z m290 -1225 c-38 -365 -195 -736
-430 -1023 l-58 -70 -318 317 c-174 174 -319 327 -323 340 -12 48 26 87 190
195 254 169 622 292 888 297 l57 1 -6 -57z m-1576 -256 c163 -163 162 -154 57
-293 -176 -232 -288 -462 -356 -730 -31 -122 -59 -306 -59 -384 l0 -50 -66 0
c-37 0 -114 7 -173 16 -278 41 -538 137 -760 281 l-84 55 614 615 c338 338
623 618 634 623 11 5 29 6 40 3 11 -3 80 -64 153 -136z m645 -645 l318 -318
-71 -58 c-175 -144 -404 -271 -612 -340 -108 -36 -304 -79 -410 -90 l-58 -6 0
52 c0 79 26 239 60 363 50 189 131 369 238 530 108 164 145 200 192 189 15 -3
146 -126 343 -322z"/>
</g>
</svg>
